<svg width="81" height="80" viewBox="0 0 81 80" fill="none" xmlns="http://www.w3.org/2000/svg">
<rect x="0.333496" width="80" height="80" rx="40" fill="#73BDBD"/>
<path fill-rule="evenodd" clip-rule="evenodd" d="M49.7646 21.25H35.8628V24.9964C35.8628 25.2984 35.6179 25.5433 35.3159 25.5433H31.5695V32.6576H49.7646V21.25ZM53.7602 45.4882H57.3089V54.6505H59.417L55.5345 58.75L51.652 54.6505H53.7601L53.7602 45.4882ZM24.0251 45.4882H27.5738V54.6505H29.682L25.7995 58.75L21.917 54.6505H24.0251V45.4882ZM38.4727 51.6266V58.75H43.0179V51.4698L55.7153 38.7651H25.6187L38.4727 51.6266ZM25.0721 37.6713V33.7513H56.2617V37.6713H25.0721ZM46.5578 24.847C46.8598 24.847 47.1046 25.0919 47.1046 25.3939C47.1046 25.6959 46.8598 25.9408 46.5578 25.9408H41.3714C41.0693 25.9408 40.8245 25.6959 40.8245 25.3939C40.8245 25.0919 41.0693 24.847 41.3714 24.847H46.5578ZM46.5578 27.7975C46.8598 27.7975 47.1046 28.0423 47.1046 28.3444C47.1046 28.6464 46.8598 28.8912 46.5578 28.8912H34.7762C34.4742 28.8912 34.2293 28.6464 34.2293 28.3444C34.2293 28.0423 34.4742 27.7975 34.7762 27.7975H46.5578ZM46.5578 30.748C46.8598 30.748 47.1046 30.9929 47.1046 31.2949C47.1046 31.597 46.8598 31.8418 46.5578 31.8418H34.7762C34.4742 31.8418 34.2293 31.597 34.2293 31.2949C34.2293 30.9929 34.4742 30.748 34.7762 30.748H46.5578ZM34.7689 21.7969V24.4495H32.1163L34.7689 21.7969Z" fill="white"/>
</svg>
