<svg width="144" height="144" viewBox="0 0 144 144" fill="none" xmlns="http://www.w3.org/2000/svg">
<rect width="144" height="144" rx="72" fill="#F8F4F1"/>
<rect x="1" y="1" width="142" height="142" rx="71" stroke="#DC8357" stroke-opacity="0.2" stroke-width="2" stroke-dasharray="5 5"/>
<rect x="16" y="16" width="112" height="112" rx="56" fill="#FFECE3" stroke="#FFD9C7" stroke-width="2"/>
<path d="M94.5 77.04C94.385 74.56 92.6925 74.5 90.3925 74.5C86.8525 74.5 86.265 75.345 86.265 78.6675V82.8325C86.265 86.155 86.8525 87 90.3925 87C92.6925 87 94.385 86.94 94.5 84.46M67.7375 80.75C67.7375 84.2 64.9725 87 61.5625 87C60.79 87 60.405 87 60.12 86.8325C59.4325 86.4325 59.5025 85.62 59.5025 84.9175V76.5825C59.5025 75.88 59.4325 75.0675 60.12 74.6675C60.405 74.5 60.79 74.5 61.56 74.5C64.9725 74.5 67.735 77.3 67.735 80.75M77 87C75.06 87 74.0875 87 73.485 86.39C72.8825 85.78 72.8825 84.7975 72.8825 82.8325V78.6675C72.8825 76.7025 72.8825 75.72 73.485 75.11C74.0875 74.5 75.06 74.5 77 74.5C78.94 74.5 79.9125 74.5 80.515 75.11C81.1175 75.72 81.1175 76.7025 81.1175 78.6675V82.8325C81.1175 84.7975 81.1175 85.78 80.515 86.39C79.9125 87 78.94 87 77 87Z" stroke="#DC8357" stroke-width="3" stroke-linecap="round" stroke-linejoin="round"/>
<path d="M79.5 97H68.8175C60.6675 97 56.5875 97 53.7575 95.005C52.9521 94.4402 52.2322 93.7624 51.62 92.9925C49.5 90.3275 49.5 86.4925 49.5 78.8175V72.455C49.5 65.0475 49.5 61.3425 50.6725 58.385C52.5575 53.6275 56.5425 49.8775 61.5975 48.1025C64.7375 47 68.67 47 76.545 47C81.04 47 83.29 47 85.085 47.63C87.9725 48.645 90.25 50.7875 91.3275 53.505C92 55.195 92 57.3125 92 61.545V67" stroke="#DC8357" stroke-width="3" stroke-linecap="round" stroke-linejoin="round"/>
<path d="M49.5 72C49.5 69.7901 50.3779 67.6707 51.9405 66.108C53.5032 64.5454 55.6226 63.6675 57.8325 63.6675C59.4975 63.6675 61.46 63.9575 63.0775 63.525C63.7843 63.3348 64.4286 62.9621 64.9459 62.4444C65.4633 61.9266 65.8354 61.2819 66.025 60.575C66.4575 58.9575 66.1675 56.995 66.1675 55.33C66.1682 53.1205 67.0463 51.0018 68.6089 49.4396C70.1715 47.8775 72.2905 47 74.5 47" stroke="#DC8357" stroke-width="3" stroke-linecap="round" stroke-linejoin="round"/>
</svg>
