<svg width="81" height="80" viewBox="0 0 81 80" fill="none" xmlns="http://www.w3.org/2000/svg">
<rect x="0.666504" width="80" height="80" rx="40" fill="#73BDBD"/>
<path d="M57.0826 45.9173C56.6941 45.5285 56.2215 45.334 55.6662 45.334H45.9995L43.1662 48.1672C42.3606 48.9448 41.4163 49.3338 40.333 49.3338C39.2499 49.3338 38.3052 48.9453 37.4997 48.1672L34.6873 45.334H24.9999C24.4445 45.334 23.9723 45.5287 23.5833 45.9173C23.1944 46.3061 23 46.7783 23 47.3341V54.0004C23 54.556 23.1944 55.0282 23.5833 55.4171C23.9722 55.8058 24.4444 56.0001 24.9999 56.0001H55.6663C56.2216 56.0001 56.6942 55.8058 57.0827 55.4171C57.4717 55.0282 57.666 54.556 57.666 54.0004V47.3341C57.666 46.7783 57.4717 46.3061 57.0826 45.9173ZM49.2707 52.9379C49.0064 53.2019 48.6938 53.3337 48.3327 53.3337C47.9716 53.3337 47.6594 53.2019 47.3953 52.9379C47.1316 52.674 46.9997 52.3616 46.9997 52.0007C46.9997 51.6397 47.1316 51.3268 47.3953 51.0633C47.6594 50.7991 47.9716 50.667 48.3327 50.667C48.6938 50.667 49.0064 50.7991 49.2707 51.0633C49.5343 51.3267 49.6662 51.6396 49.6662 52.0007C49.6662 52.3616 49.5343 52.674 49.2707 52.9379ZM54.6035 52.9379C54.3398 53.2019 54.0272 53.3337 53.666 53.3337C53.305 53.3337 52.9926 53.2019 52.7286 52.9379C52.465 52.674 52.3331 52.3616 52.3331 52.0007C52.3331 51.6397 52.465 51.3268 52.7286 51.0633C52.9925 50.7991 53.3049 50.667 53.666 50.667C54.0271 50.667 54.3397 50.7991 54.6035 51.0633C54.8675 51.3267 54.9995 51.6396 54.9995 52.0007C54.9995 52.3616 54.8677 52.674 54.6035 52.9379Z" fill="white"/>
<path d="M39.3955 46.2708C39.6456 46.5344 39.9581 46.6664 40.3329 46.6664C40.7081 46.6664 41.0202 46.5344 41.2704 46.2708L50.6036 36.9375C51.0341 36.5348 51.1315 36.0486 50.8953 35.4791C50.6596 34.9376 50.2497 34.6668 49.6662 34.6665H44.3328V25.3334C44.3328 24.9723 44.2007 24.6598 43.9372 24.3959C43.6731 24.132 43.3607 24 42.9998 24H37.6661C37.3052 24 36.9926 24.132 36.7286 24.3959C36.4649 24.6598 36.3328 24.9722 36.3328 25.3334V34.6666H30.9996C30.416 34.6666 30.0065 34.9377 29.7704 35.4792C29.5344 36.0484 29.6315 36.5348 30.0622 36.9376L39.3955 46.2708Z" fill="white"/>
</svg>
