<svg width="144" height="144" viewBox="0 0 144 144" fill="none" xmlns="http://www.w3.org/2000/svg">
<rect width="144" height="144" rx="72" fill="#F8F4F1"/>
<rect x="1" y="1" width="142" height="142" rx="71" stroke="#DC8357" stroke-opacity="0.2" stroke-width="2" stroke-dasharray="5 5"/>
<rect x="16" y="16" width="112" height="112" rx="56" fill="#FFECE3" stroke="#FFD9C7" stroke-width="2"/>
<path d="M79.5 97H68.8175C60.6675 97 56.5875 97 53.7575 95.005C52.9521 94.4402 52.2322 93.7624 51.62 92.9925C49.5 90.3275 49.5 86.4925 49.5 78.8175V72.455C49.5 65.0475 49.5 61.3425 50.6725 58.385C52.5575 53.6275 56.5425 49.8775 61.5975 48.1025C64.7375 47 68.67 47 76.545 47C81.04 47 83.29 47 85.085 47.63C87.9725 48.645 90.25 50.7875 91.3275 53.505C92 55.195 92 57.3125 92 61.545V67" stroke="#DC8357" stroke-width="3" stroke-linecap="round" stroke-linejoin="round"/>
<path d="M49.5 72C49.5 69.7901 50.3779 67.6707 51.9405 66.108C53.5032 64.5454 55.6226 63.6675 57.8325 63.6675C59.4975 63.6675 61.46 63.9575 63.0775 63.525C63.7843 63.3348 64.4286 62.9621 64.9459 62.4444C65.4633 61.9266 65.8354 61.2819 66.025 60.575C66.4575 58.9575 66.1675 56.995 66.1675 55.33C66.1682 53.1205 67.0463 51.0018 68.6089 49.4396C70.1715 47.8775 72.2905 47 74.5 47M67 74.5V81.0575C67 83.31 66.7475 86.03 64.62 86.78C63.03 87.34 61.09 86.6625 60.1925 85.235C59.77 84.565 59.5 83.84 59.5 83.25M73.25 87V74.5H76.7075C78.4425 74.5 80.3275 75.35 80.52 77.075C80.574 77.6065 80.5274 78.1433 80.3825 78.6575C80.0175 80.0075 78.625 80.75 77.2275 80.75H75.75M94.5 77C94.37 75.0875 93.555 74.535 90.75 74.5H88.25C87.587 74.5 86.9511 74.7634 86.4822 75.2322C86.0134 75.7011 85.75 76.337 85.75 77V84.5C85.75 85.163 86.0134 85.7989 86.4822 86.2678C86.9511 86.7366 87.587 87 88.25 87H92C92.663 87 93.2989 86.7366 93.7678 86.2678C94.2366 85.7989 94.5 85.163 94.5 84.5V83.25C94.5 82.9185 94.3683 82.6005 94.1339 82.3661C93.8995 82.1317 93.5815 82 93.25 82H90.75" stroke="#DC8357" stroke-width="3" stroke-linecap="round" stroke-linejoin="round"/>
</svg>
