<svg width="144" height="144" viewBox="0 0 144 144" fill="none" xmlns="http://www.w3.org/2000/svg">
<rect width="144" height="144" rx="72" fill="#F8F4F1"/>
<rect x="1" y="1" width="142" height="142" rx="71" stroke="#DC8357" stroke-opacity="0.2" stroke-width="2" stroke-dasharray="5 5"/>
<rect x="16" y="16" width="112" height="112" rx="56" fill="#FFECE3" stroke="#FFD9C7" stroke-width="2"/>
<path d="M59.5 87V80.75M59.5 80.75V77C59.5 75.8225 59.5 75.2325 59.885 74.865C60.27 74.5 60.8875 74.5 62.125 74.5H63.875C65.6875 74.5 67.1575 75.9 67.1575 77.625C67.1575 79.35 65.6875 80.75 63.875 80.75H59.5ZM94.5 74.5H91.22C89.1575 74.5 88.125 74.5 87.485 75.11C86.845 75.72 86.845 76.7025 86.845 78.6675V80.75M86.845 80.75V87M86.845 80.75H92.3125M81.375 80.75C81.375 84.2 78.4375 87 74.8125 87C73.995 87 73.5875 87 73.28 86.8325C72.5525 86.4325 72.625 85.62 72.625 84.9175V76.5825C72.625 75.88 72.55 75.0675 73.28 74.6675C73.585 74.5 73.995 74.5 74.8125 74.5C78.4375 74.5 81.375 77.3 81.375 80.75Z" stroke="#DC8357" stroke-width="3" stroke-linecap="round" stroke-linejoin="round"/>
<path d="M79.5 97H68.8175C60.6675 97 56.5875 97 53.7575 95.005C52.9521 94.4402 52.2322 93.7624 51.62 92.9925C49.5 90.3275 49.5 86.4925 49.5 78.8175V72.455C49.5 65.0475 49.5 61.3425 50.6725 58.385C52.5575 53.6275 56.5425 49.8775 61.5975 48.1025C64.7375 47 68.67 47 76.545 47C81.04 47 83.29 47 85.085 47.63C87.9725 48.645 90.25 50.7875 91.3275 53.505C92 55.195 92 57.3125 92 61.545V67" stroke="#DC8357" stroke-width="3" stroke-linecap="round" stroke-linejoin="round"/>
<path d="M49.5 72C49.5 69.7901 50.3779 67.6707 51.9405 66.108C53.5032 64.5454 55.6226 63.6675 57.8325 63.6675C59.4975 63.6675 61.46 63.9575 63.0775 63.525C63.7843 63.3348 64.4286 62.9621 64.9459 62.4444C65.4633 61.9266 65.8354 61.2819 66.025 60.575C66.4575 58.9575 66.1675 56.995 66.1675 55.33C66.1682 53.1205 67.0463 51.0018 68.6089 49.4396C70.1715 47.8775 72.2905 47 74.5 47" stroke="#DC8357" stroke-width="3" stroke-linecap="round" stroke-linejoin="round"/>
</svg>
