<svg width="144" height="144" viewBox="0 0 144 144" fill="none" xmlns="http://www.w3.org/2000/svg">
<rect width="144" height="144" rx="72" fill="#F8F4F1"/>
<rect x="1" y="1" width="142" height="142" rx="71" stroke="#DC8357" stroke-opacity="0.2" stroke-width="2" stroke-dasharray="5 5"/>
<rect x="16" y="16" width="112" height="112" rx="56" fill="#FFECE3" stroke="#FFD9C7" stroke-width="2"/>
<path d="M79.5 97H68.8175C60.6675 97 56.5875 97 53.7575 95.005C52.9521 94.4402 52.2322 93.7624 51.62 92.9925C49.5 90.3275 49.5 86.4925 49.5 78.8175V72.455C49.5 65.0475 49.5 61.3425 50.6725 58.385C52.5575 53.6275 56.5425 49.8775 61.5975 48.1025C64.7375 47 68.67 47 76.545 47C81.04 47 83.29 47 85.085 47.63C87.9725 48.645 90.25 50.7875 91.3275 53.505C92 55.195 92 57.3125 92 61.545V67" stroke="#DC8357" stroke-width="3" stroke-linecap="round" stroke-linejoin="round"/>
<path d="M49.5 72C49.5 69.7901 50.3779 67.6707 51.9405 66.108C53.5032 64.5454 55.6226 63.6675 57.8325 63.6675C59.4975 63.6675 61.46 63.9575 63.0775 63.525C63.7843 63.3348 64.4286 62.9621 64.9459 62.4444C65.4633 61.9266 65.8354 61.2819 66.025 60.575C66.4575 58.9575 66.1675 56.995 66.1675 55.33C66.1682 53.1205 67.0463 51.0018 68.6089 49.4396C70.1715 47.8775 72.2905 47 74.5 47M59.5 87V75.75C59.5 75.4185 59.6317 75.1005 59.8661 74.8661C60.1005 74.6317 60.4185 74.5 60.75 74.5H63.745C64.9975 74.5 66.2825 75.085 66.6575 76.28C66.9075 77.085 66.8975 77.84 66.6475 78.695C66.2575 80.02 64.8875 80.75 63.505 80.75H60.75M72 87L72.25 75.425C72.2496 75.3716 72.2663 75.3195 72.2976 75.2763C72.3289 75.2331 72.3732 75.2011 72.4241 75.1849C72.4749 75.1687 72.5296 75.1692 72.5802 75.1863C72.6307 75.2034 72.6745 75.2362 72.705 75.28L80.0625 86.28C80.093 86.3238 80.1368 86.3566 80.1873 86.3737C80.2379 86.3908 80.2926 86.3913 80.3434 86.3751C80.3943 86.3589 80.4386 86.3269 80.4699 86.2837C80.5012 86.2405 80.5179 86.1884 80.5175 86.135L80.75 74.5M94.5 76.6825C94.2 74.8875 93.8675 74.5 92 74.5H88.25C86.87 74.5 86.2475 75.62 86.2475 77V84.5C86.2475 85.88 86.87 87 88.25 87H92.5C93.0304 87 93.5391 86.7893 93.9142 86.4142C94.2893 86.0391 94.5 85.5304 94.5 85V83C94.5 82.7348 94.3946 82.4804 94.2071 82.2929C94.0196 82.1054 93.7652 82 93.5 82H91.625" stroke="#DC8357" stroke-width="3" stroke-linecap="round" stroke-linejoin="round"/>
</svg>
