<svg width="144" height="144" viewBox="0 0 144 144" fill="none" xmlns="http://www.w3.org/2000/svg">
<rect width="144" height="144" rx="72" fill="#F8F4F1"/>
<rect x="1" y="1" width="142" height="142" rx="71" stroke="#DC8357" stroke-opacity="0.2" stroke-width="2" stroke-dasharray="5 5"/>
<rect x="16" y="16" width="112" height="112" rx="56" fill="#FFECE3" stroke="#FFD9C7" stroke-width="2"/>
<path d="M73.875 47.625C70.1707 47.6298 66.5159 48.4763 63.1865 50.1003C59.8572 51.7244 56.9403 54.0837 54.6562 57H51.375C50.3804 57 49.4266 57.3951 48.7233 58.0983C48.0201 58.8016 47.625 59.7554 47.625 60.75V83.25C47.625 84.2446 48.0201 85.1984 48.7233 85.9016C49.4266 86.6049 50.3804 87 51.375 87H54.6562C57.2006 90.259 60.5322 92.8173 64.3377 94.4341C68.1431 96.0509 72.2972 96.6732 76.4094 96.2423C80.5215 95.8114 84.4564 94.3416 87.8441 91.9711C91.2317 89.6006 93.9607 86.4074 95.7743 82.6917C97.5878 78.9761 98.4265 74.8601 98.2112 70.7311C97.996 66.602 96.734 62.5956 94.5439 59.0887C92.3538 55.5817 89.3076 52.6895 85.6918 50.6841C82.0761 48.6787 78.0096 47.626 73.875 47.625ZM58.875 77.625V66.375C58.875 65.8777 59.0725 65.4008 59.4242 65.0492C59.7758 64.6975 60.2527 64.5 60.75 64.5H64.5C65.9918 64.5 67.4226 65.0926 68.4775 66.1475C69.5324 67.2024 70.125 68.6332 70.125 70.125C70.125 71.6168 69.5324 73.0476 68.4775 74.1025C67.4226 75.1574 65.9918 75.75 64.5 75.75H62.625V77.625C62.625 78.1223 62.4275 78.5992 62.0758 78.9508C61.7242 79.3025 61.2473 79.5 60.75 79.5C60.2527 79.5 59.7758 79.3025 59.4242 78.9508C59.0725 78.5992 58.875 78.1223 58.875 77.625ZM72 92.5383C67.4059 92.111 63.086 90.1619 59.7258 87H72V92.5383ZM72 57H59.7258C63.086 53.8381 67.4059 51.889 72 51.4617V57ZM75.75 51.4617C80.5498 51.9061 85.0429 54.0151 88.4514 57.4236C91.8598 60.8321 93.9689 65.3252 94.4133 70.125H79.5V60.75C79.5 59.7554 79.1049 58.8016 78.4016 58.0983C77.6984 57.3951 76.7446 57 75.75 57V51.4617ZM75.75 92.5383V87C76.7446 87 77.6984 86.6049 78.4016 85.9016C79.1049 85.1984 79.5 84.2446 79.5 83.25V73.875H94.4133C93.9689 78.6748 91.8598 83.1679 88.4514 86.5764C85.0429 89.9848 80.5498 92.0939 75.75 92.5383ZM64.5 72H62.625V68.25H64.5C64.9973 68.25 65.4742 68.4475 65.8258 68.7992C66.1775 69.1508 66.375 69.6277 66.375 70.125C66.375 70.6223 66.1775 71.0992 65.8258 71.4508C65.4742 71.8025 64.9973 72 64.5 72Z" fill="#DC8357"/>
</svg>
