<svg width="80" height="80" viewBox="0 0 80 80" fill="none" xmlns="http://www.w3.org/2000/svg">
<rect width="80" height="80" rx="40" fill="#73BDBD"/>
<path d="M45.8203 25.7424C41.5206 25.6564 37.0857 28.1187 35.8691 33.6745C30.9178 31.9845 26.4472 35.3177 26.9116 40.6398C24.321 41.687 22.5 44.2179 22.5 47.1926C22.5 51.1095 25.6533 54.2629 29.5703 54.2629H38.1592C38.1568 51.8824 38.1518 47.1061 38.1518 46.2013L36.1377 46.9313C34.6765 47.561 33.5972 45.721 34.8486 44.5753L38.6596 40.8717C39.5301 40.0013 40.5697 40.1011 41.3403 40.8717L45.1514 44.5753C46.4027 45.721 45.3235 47.561 43.8623 46.9313L41.8481 46.2013V54.2629H50.4297C54.3467 54.2629 57.5 51.1095 57.5 47.1926C57.5 44.3096 55.7888 41.8452 53.3252 40.7424C58.0988 31.4361 52.1045 25.8679 45.8203 25.7424Z" fill="white"/>
<path d="M45.8204 25.7416C45.5809 25.7369 45.318 25.7451 45.0782 25.7557C39.5865 34.4106 48.0737 40.7411 53.3253 40.7411C58.0989 31.4348 52.1046 25.8671 45.8204 25.7416Z" fill="#5DADAD"/>
</svg>
