<svg width="144" height="144" viewBox="0 0 144 144" fill="none" xmlns="http://www.w3.org/2000/svg">
<rect width="144" height="144" rx="72" fill="#F8F4F1"/>
<rect x="1" y="1" width="142" height="142" rx="71" stroke="#DC8357" stroke-opacity="0.2" stroke-width="2" stroke-dasharray="5 5"/>
<rect x="16" y="16" width="112" height="112" rx="56" fill="#FFECE3" stroke="#FFD9C7" stroke-width="2"/>
<path d="M59.5 74.5L63.6175 80.75M63.6175 80.75L67.735 87M63.6175 80.75L67.735 74.5M63.6175 80.75L59.5 87M94.5 87H92.4425C90.5 87 89.53 87 88.9275 86.39C88.3225 85.78 88.3225 84.7975 88.3225 82.8325V74.5M72.8825 87L73.7375 76.5875C73.81 75.7025 73.845 75.2625 74.1125 75.18C74.38 75.0975 74.6525 75.4425 75.2 76.135L77.3825 78.895C77.68 79.27 77.8275 79.4575 78.025 79.4575C78.2225 79.4575 78.3725 79.27 78.6675 78.895L80.8525 76.1325C81.3975 75.4425 81.6725 75.095 81.9375 75.1775C82.205 75.26 82.2425 75.7025 82.315 76.585L83.1775 87" stroke="#DC8357" stroke-width="3" stroke-linecap="round" stroke-linejoin="round"/>
<path d="M79.5 97H68.8175C60.6675 97 56.5875 97 53.7575 95.005C52.9521 94.4402 52.2322 93.7624 51.62 92.9925C49.5 90.3275 49.5 86.4925 49.5 78.8175V72.455C49.5 65.0475 49.5 61.3425 50.6725 58.385C52.5575 53.6275 56.5425 49.8775 61.5975 48.1025C64.7375 47 68.67 47 76.545 47C81.04 47 83.29 47 85.085 47.63C87.9725 48.645 90.25 50.7875 91.3275 53.505C92 55.195 92 57.3125 92 61.545V67" stroke="#DC8357" stroke-width="3" stroke-linecap="round" stroke-linejoin="round"/>
<path d="M49.5 72C49.5 69.7901 50.3779 67.6707 51.9405 66.108C53.5032 64.5454 55.6226 63.6675 57.8325 63.6675C59.4975 63.6675 61.46 63.9575 63.0775 63.525C63.7843 63.3348 64.4286 62.9621 64.9459 62.4444C65.4633 61.9266 65.8354 61.2819 66.025 60.575C66.4575 58.9575 66.1675 56.995 66.1675 55.33C66.1682 53.1205 67.0463 51.0018 68.6089 49.4396C70.1715 47.8775 72.2905 47 74.5 47" stroke="#DC8357" stroke-width="3" stroke-linecap="round" stroke-linejoin="round"/>
</svg>
